<?xml version="1.0" encoding="utf-8"?>
<!-- Generator: Adobe Illustrator 24.0.0, SVG Export Plug-In . SVG Version: 6.00 Build 0)  -->
<svg version="1.1" xmlns="http://www.w3.org/2000/svg" xmlns:xlink="http://www.w3.org/1999/xlink" x="0px" y="0px"
	 viewBox="0 0 500 500" style="enable-background:new 0 0 500 500;" xml:space="preserve">
<style type="text/css">
	.st0{enable-background:new    ;}
	.st1{fill:#A63E42;}
	.st2{fill:#FFFFFF;}
	.st3{fill:#300A18;}
</style>
<g id="Ellipse_1_1_" class="st0">
	<g id="Ellipse_1">
		<g>
			<path class="st1" d="M247.5,487.5c-64.11,0-124.38-24.96-169.71-70.29C32.46,371.88,7.5,311.61,7.5,247.5
				S32.46,123.12,77.79,77.79C123.12,32.46,183.39,7.5,247.5,7.5s124.38,24.96,169.71,70.29c45.33,45.33,70.29,105.6,70.29,169.71
				s-24.96,124.38-70.29,169.71S311.61,487.5,247.5,487.5z"/>
		</g>
		<g>
			<path class="st2" d="M247.5,15c31.39,0,61.84,6.15,90.49,18.27c27.68,11.71,52.55,28.48,73.91,49.83
				c21.36,21.36,38.12,46.22,49.83,73.91c12.12,28.65,18.27,59.1,18.27,90.49s-6.15,61.84-18.27,90.49
				c-11.71,27.68-28.48,52.55-49.83,73.91c-21.36,21.36-46.22,38.12-73.91,49.83C309.34,473.86,278.89,480,247.5,480
				s-61.84-6.14-90.49-18.27c-27.68-11.71-52.55-28.48-73.91-49.83s-38.12-46.22-49.83-73.91C21.14,309.34,15,278.89,15,247.5
				s6.14-61.84,18.27-90.49c11.71-27.68,28.48-52.55,49.83-73.91c21.36-21.36,46.22-38.12,73.91-49.83
				C185.66,21.15,216.11,15,247.5,15 M247.5,0C110.81,0,0,110.81,0,247.5S110.81,495,247.5,495S495,384.19,495,247.5
				S384.19,0,247.5,0L247.5,0z"/>
		</g>
	</g>
</g>
<g id="M_1_">
	<g id="Shape_1">
		<g>
			<rect x="120.74" y="171.72" class="st3" width="58.01" height="156.65"/>
		</g>
	</g>
	<g id="Shape_3">
		<g>
			<path class="st3" d="M318.54,223.03c20.95,0,60.94,0,60.94,0v-51.31H256.09v156.65h123.39v-46.32c0,0-39.99,0-60.94,0
				c-7.44,0-12.47,0-12.47,0v-59.03C306.06,223.03,311.1,223.03,318.54,223.03z"/>
		</g>
	</g>
	<g id="Shape_4">
		<g>
			<polygon class="st2" points="326.02,231.89 318.09,231.89 318.09,271.53 326.02,271.53 341.88,250.39 			"/>
		</g>
	</g>
	<g id="Shape_5">
		<g>
			<polygon class="st2" points="218,198 186.78,179 186.78,242 217,264 247.63,242.67 247.63,179 			"/>
		</g>
	</g>
</g>
</svg>
