<?xml version="1.0" encoding="utf-8"?>
<!-- Generator: Adobe Illustrator 24.0.0, SVG Export Plug-In . SVG Version: 6.00 Build 0)  -->
<svg version="1.1" xmlns="http://www.w3.org/2000/svg" xmlns:xlink="http://www.w3.org/1999/xlink" x="0px" y="0px"
	 viewBox="0 0 600 200" style="enable-background:new 0 0 600 200;" xml:space="preserve">
<style type="text/css">
	.st0{fill:#FFFFFF;}
	.st1{enable-background:new    ;}
</style>
<g id="M_1_">
	<g id="Shape_6">
		<g>
			<polygon class="st0" points="7.99,75.96 7.99,173.75 55.71,173.75 55.71,94.12 82.55,118.51 107.78,94.12 107.78,173.75 
				159.39,173.75 159.39,75.96 			"/>
		</g>
	</g>
	<g id="Shape_7">
		<g>
			<polygon class="st0" points="108.78,26.98 83.55,52.13 56.71,26.98 9,26.98 9,65.77 160.39,65.77 160.39,26.98 			"/>
		</g>
	</g>
</g>
<g id="E_3_">
	<g id="Shape_8">
		<g>
			<polygon class="st0" points="291.19,116.77 291.19,75.96 176.61,75.96 176.61,173.75 291.19,173.75 291.19,131.7 230.65,131.7 
				230.65,116.77 			"/>
		</g>
	</g>
	<g id="Shape_9">
		<g>
			<polygon class="st0" points="177.61,26.98 167.16,65.77 292.19,65.77 292.19,26.98 			"/>
		</g>
	</g>
</g>
<g id="X_1_" class="st1">
	<g id="X">
		<g>
			<polygon class="st0" points="475.58,27.39 423.1,27.39 405.05,61.68 388.12,27.39 334.85,27.39 377.97,97.7 334.85,174 
				383.61,174 402.79,137.45 421.97,174 475.58,174 429.87,97.7 			"/>
		</g>
	</g>
</g>
<g id="E_2_" class="st1">
	<g id="E_1_">
		<g>
			<polygon class="st0" points="591,65.4 591,27.39 481.55,27.39 481.55,174 591,174 591,137.45 527.09,137.45 527.09,118.82 
				578.86,118.82 578.86,81.55 527.09,81.55 527.09,65.4 			"/>
		</g>
	</g>
</g>
</svg>
