<?xml version="1.0" encoding="utf-8"?>
<!-- Generator: Adobe Illustrator 24.0.0, SVG Export Plug-In . SVG Version: 6.00 Build 0)  -->
<svg version="1.1" xmlns="http://www.w3.org/2000/svg" xmlns:xlink="http://www.w3.org/1999/xlink" x="0px" y="0px"
	 viewBox="0 0 500 500" style="enable-background:new 0 0 500 500;" xml:space="preserve">
<style type="text/css">
	.st0{display:none;enable-background:new    ;}
	.st1{fill:#472D2D;}
</style>
<g id="Ellipse_1_1_" class="st0">
</g>
<g id="LOGO_1_">
	<g id="_x39_">
		<g>
			<path class="st1" d="M224.53,167.61c0,0-7.03-15.1-11.25-24.05s-11.38-2.4-20.09,0c-23.72,8.39-50,18.24-78.75,28.05
				c-6.65,1.92-10.45,3.58-10.33,10.23c-0.1,17.9-0.12,56.31-0.12,56.3l11.25-6.41c0,0-11.15,66.04-11.25,77.75
				c-0.1,11.71,9.64,9.77,9.64,9.77s30.18,0,57.05,0c-33.56-21.01-26.3-50.76-22.5-69.89c3.8-19.12,9.64-32.06,9.64-32.06
				s52.75-29.2,61.07-36.07C227.22,174.36,224.53,167.61,224.53,167.61z"/>
		</g>
	</g>
	<g id="_x38_">
		<g>
			<path class="st1" d="M230.73,193.85c-2.59-3.99-2.45-1.43-8.04,1.6c-9.08,5.15-12.05,7.21-12.05,7.21s23.89-0.53,7.23,4.81
				c-16.65,5.33-53.08,17.66-57.05,44.09c-1.53,8.67-1.98,17.46,0.8,16.83c2.78-0.62,3.21-3.21,3.21-3.21s11.25-34.45,64.28-56.91
				C232,200.42,231.76,199.12,230.73,193.85z"/>
		</g>
	</g>
	<g id="_x37_">
		<g>
			<path class="st1" d="M217,321c-0.09-0.02-0.19-0.03-0.28-0.05C216.89,320.98,217,321,217,321z M211.44,245.95
				c11.39-12.63,15.33-17.22,26.52-35.27c-5,3.63-37.62,13.35-55.44,36.07c-10.65,10.59-24.77,32.09-12.86,61.72
				c11.06,15.34,34.33,10.12,47.06,12.48c-1.53-0.28-9.6-2.08-18.13-10.07C180.74,294.17,204.06,254.88,211.44,245.95z"/>
		</g>
	</g>
	<g id="_x36_">
		<g>
			<path class="st1" d="M230,249c7.69-11.8,6.89-16.31,8-34c0,0-9.74,20.16-17,28c-7.26,7.84-51.75,76.47,16,79
				C223.32,308.32,204.99,299.48,230,249z"/>
		</g>
	</g>
	<g id="_x35_">
		<g>
			<path class="st1" d="M257.24,249.16c-9.47-13.8-10.35-27.07-13.66-33.67c0,0-1.41,23.67-8.04,34.47s-24.5,55.28,6.43,72.29
				C274.56,317.96,266.72,262.96,257.24,249.16z"/>
		</g>
	</g>
	<g id="_x34_">
		<g>
			<path class="st1" d="M253.23,198.66c-4.1-10.89-12.39-30.1,12.05-21.64c26.29,7.07,8.04,1.6,8.04,1.6s-26.92-24.24-38.57,0.8
				c-5.31,11.6,19.7,53.56,23.3,60.12c7.98,14.36,10.57,15.44,16.07,34.47c3.45,22.33-9.39,41.05-23.3,48.09
				c22.9,1.97,58.87-19.13,59.26-48.15C308.86,227.76,259.57,221.97,253.23,198.66z"/>
		</g>
	</g>
	<g id="_x33_">
		<g>
			<path class="st1" d="M311.88,236.33c-26.71-16.81-45-32.22-47.41-36.87c-4.5-8.71,11.85-3.3,12.86-3.21
				c0,0-31.93-19.26-17.68,7.21c18.83,19.69,49.27,32.78,57.05,59.31c15.72,45.75-32.06,51.24-49.17,58.71
				c22.75-0.72,48.56,3.56,66.04-6.61C342.43,308.09,372.48,277.86,311.88,236.33z"/>
		</g>
	</g>
	<g id="_x32_">
		<g>
			<path class="st1" d="M420.14,286.5c-5.82-20.88-97.17-48.28-97.17-48.28s53.25,23.73,71.56,43.36
				c22.66,29.41-33.62,34.44-67.02,40.69C422.7,324.22,425.27,304.89,420.14,286.5z"/>
		</g>
	</g>
	<g id="_x31_">
		<g>
			<path class="st1" d="M289.89,214.94c-5.02-4.38,6.65-4.75,6.65-4.75s-3.67-3.29-10.5-2.26c-6.58,0.99,0.23,10.44,11.95,16.62
				c13.71,7.22,16.43,8.17,16.43,8.17S294.82,219.24,289.89,214.94z"/>
		</g>
	</g>
</g>
</svg>
